/* XPM */
static char *result[] = {
/* columns rows colors chars-per-pixel */
"50 50 189 2 ",
"   c #A03000",
".  c #A02F00",
"X  c #8B6251",
"o  c #7E8182",
"O  c #7F8081",
"+  c #857168",
"@  c #9F3406",
"#  c #A03101",
"$  c #886A5E",
"%  c #7E8081",
"&  c #807D7C",
"*  c #99411C",
"=  c #A12F00",
"-  c #9F3001",
";  c #B65C00",
":  c #B65B00",
">  c #937251",
",  c #7E8082",
"<  c #A53A00",
"1  c #B55B00",
"2  c #B55C01",
"3  c #8D765E",
"4  c #A13200",
"5  c #B25400",
"6  c #C17100",
"7  c #977A51",
"8  c #7E7F82",
"9  c #A73E00",
"0  c #C07000",
"q  c #C17200",
"w  c #C07201",
"e  c #907B5E",
"r  c #7E7F81",
"t  c #A13300",
"y  c #BB6600",
"u  c #C17000",
"i  c #967A51",
"p  c #BF6E00",
"a  c #BF7001",
"s  c #BA6500",
"d  c #C07100",
"f  c #C27000",
"g  c #C26F00",
"h  c #977950",
"j  c #9F3203",
"k  c #A02D00",
"l  c #A83C00",
"z  c #C16E00",
"x  c #917B5D",
"c  c #994019",
"v  c #A12D00",
"b  c #A23100",
"n  c #BC6400",
"m  c #9D7844",
"M  c #8A7C6A",
"N  c #7E7F80",
"B  c #7F7F80",
"V  c #827975",
"C  c #8E5C47",
"Z  c #8E5A44",
"A  c #926144",
"S  c #9D7744",
"D  c #9D7845",
"F  c #877D70",
"G  c #7F7E7E",
"H  c #8F5A43",
"J  c #8F5C44",
"K  c #9A7344",
"L  c #7D7F83",
"P  c gray50",
"I  c #7E8183",
"U  c #7D8083",
"Y  c #7F8080",
"T  c #817A77",
"R  c #8D5D48",
"E  c #84746D",
"W  c #7F7F7E",
"Q  c #8A6454",
"!  c #9E3406",
"~  c #A12E00",
"^  c #8A6657",
"/  c #98431F",
"(  c #A12C00",
")  c #9E3609",
"_  c #896658",
"`  c #974521",
"'  c #9F2F00",
"]  c #A33700",
"[  c #B35500",
"{  c #B45700",
"}  c #8F7358",
"|  c #B35700",
" . c #A63C00",
".. c #BF6F00",
"X. c #937B58",
"o. c #A94100",
"O. c #A63B00",
"+. c #BF6D00",
"@. c #937A58",
"#. c #A84100",
"$. c #C06F00",
"%. c #A73900",
"&. c #C06D00",
"*. c #947A56",
"=. c #A22C00",
"-. c #AA3F00",
";. c #817976",
":. c #8F5840",
">. c #91543B",
",. c #945B3B",
"<. c #A1753B",
"1. c #A2773B",
"2. c #8C604D",
"3. c #91543A",
"4. c #90543B",
"5. c #955E3B",
"6. c #7D7F82",
"7. c #7E8181",
"8. c #817A76",
"9. c #8B6250",
"0. c #8C604E",
"q. c #827772",
"w. c #896758",
"e. c #886A5D",
"r. c #99401A",
"t. c #A02E00",
"y. c #9F2F01",
"u. c #876A5E",
"i. c #9F2E00",
"p. c #AA4400",
"a. c #AB4400",
"s. c #8F6A51",
"d. c #A23400",
"f. c #AA4501",
"g. c #8A705E",
"h. c #A03100",
"j. c #AA4500",
"k. c #C07101",
"l. c #BB6500",
"z. c #9F3202",
"x. c #A77632",
"c. c #A77631",
"v. c #8D7C63",
"b. c #837671",
"n. c #925135",
"m. c #934E31",
"M. c #975732",
"N. c #A67532",
"B. c #A67632",
"V. c #897D6B",
"C. c #7F7E7D",
"Z. c #8F5942",
"A. c #934E30",
"S. c #945132",
"D. c #A36F32",
"F. c #807B79",
"G. c #896859",
"H. c #8A6656",
"J. c #876C61",
"K. c #8A6556",
"L. c #9E3508",
"P. c #896657",
"I. c #984420",
"U. c #A83F00",
"Y. c #A84000",
"T. c #8C6B58",
"R. c #BE6D00",
"E. c #937A57",
"W. c #974421",
"Q. c #A94000",
"!. c #837570",
"~. c #9A3F18",
"^. c #9B3910",
"/. c #A14411",
"(. c #B66F11",
"). c #B87211",
"_. c #B87210",
"`. c #944C2E",
"'. c #9C390E",
"]. c #9B3911",
"[. c #A34911",
"{. c #B77111",
"}. c #807C7A",
"|. c #817B79",
" X c #817C79",
".X c #827E79",
"XX c #807F7D",
"oX c #807C7B",
"OX c white",
/* pixels */
"                      . X o O + @                                         # $ % & * =               ",
". . . . . . . . . . . . X o O + @     . . . . . . . . . . . . . . . . . . - $ % & * =   . . . . . . ",
"; ; ; ; ; ; ; ; ; ; ; : > , O + @ . < 1 ; ; ; ; ; ; ; ; ; ; ; ; ; ; ; ; ; 2 3 % & * . 4 5 ; ; ; ; ; ",
"6 6 6 6 6 6 6 6 6 6 6 6 7 8 O + @ . 9 0 q 6 6 6 6 6 6 6 6 6 6 6 6 6 6 6 6 w e r & * . t y q 6 6 6 6 ",
"0 0 0 0 0 0 0 0 0 0 0 u i 8 O + @ . 9 p 0 0 0 0 0 0 0 0 0 0 0 0 0 0 0 0 0 a e r & * . t s d 0 0 0 0 ",
"0 0 0 0 0 0 0 0 0 0 0 u i 8 O + @ . 9 p 0 0 0 0 0 0 0 0 0 0 0 0 0 0 0 0 0 a e r & * . t s d 0 0 0 0 ",
"0 0 0 0 0 0 0 0 0 0 0 u i 8 O + @ . 9 p 0 0 0 0 0 0 0 0 0 0 0 0 0 0 0 0 0 a e r & * . t s d 0 0 0 0 ",
"f f f f f f f f f f f g h 8 O + j k l z f f f f f f f f f f f f f f f f f u x r & c v b n f f f f f ",
"m m m m m m m m m m m m M N B V C Z A S m m m m m m m m m m m m m m m m m D F N G X H J K m m m m m ",
"L L L L L L L L L L L L N P P B o I I L L L L L L L L L L L L L L L L L L L B P P o I I U L L L L L ",
"P P P o I I I I I I I I I I I I I I I I I I I I I Y P P o I I I I I I I I I I I I I I I I I I I I I ",
"P B T R Z Z Z Z Z Z Z Z Z Z Z Z Z Z Z Z Z Z Z Z Z E Y W Q H Z Z Z Z Z Z Z Z Z Z Z Z Z Z Z Z Z Z Z Z ",
"P Y E ! ~ ~ ~ ~ ~ ~ ~ ~ ~ ~ ~ ~ ~ ~ ~ ~ ~ ~ ~ ~ ~ ^ o G / ( ~ ~ ~ ~ ~ ~ ~ ~ ~ ~ ~ ~ ~ ~ ~ ~ ~ ~ ~ ~ ",
"P Y E )                                           _ o G ` =                                         ",
"P Y E )     ' ' ' ' ' ' ' ' ' ' ' ' ' ' ' ' ' ' ' _ o G ` =     ' ' ' ' ' ' ' ' ' ' ' ' ' ' ' ' ' ' ",
"P Y E ) . ] [ { { { { { { { { { { { { { { { { { { } , G ` = . < | { { { { { { { { { { { { { { { { { ",
"P Y E ) .  ...q q q q q q q q q q q q q q q q q q X.8 G ` = ' o.6 q q q q q q q q q q q q q q q q q ",
"P Y E ) . O.+.0 0 0 0 0 0 0 0 0 0 0 0 0 0 0 0 0 0 @.8 G ` = ' #.$.0 0 0 0 0 0 0 0 0 0 0 0 0 0 0 0 0 ",
"P Y E ) . O.+.0 0 0 0 0 0 0 0 0 0 0 0 0 0 0 0 0 0 @.8 G ` = ' #.$.0 0 0 0 0 0 0 0 0 0 0 0 0 0 0 0 0 ",
"P Y E ) . O.+.0 0 0 0 0 0 0 0 0 0 0 0 0 0 0 0 0 0 @.8 G ` = ' #.$.0 0 0 0 0 0 0 0 0 0 0 0 0 0 0 0 0 ",
"P Y E ! v %.&.f f f f f f f f f f f f f f f f f f *.8 G / =.k -.g f f f f f f f f f f f f f f f f f ",
"P B ;.:.>.,.<.1.1.1.1.1.1.1.1.1.1.1.1.1.1.1.1.1.1.M N W 2.3.4.5.1.1.1.1.1.1.1.1.1.1.1.1.1.1.1.1.1.1.",
"P P P o o o 6.6.6.6.6.6.6.6.6.6.6.6.6.6.6.6.6.6.6.N P P 7.o o o 6.6.6.6.6.6.6.6.6.6.6.6.6.6.6.6.6.6.",
"o o o o o o o o o o o o Y P P B o o o o o o o o o o o o o o o o o o o o o o Y P P o o o o o o o o o ",
"2.2.2.2.2.2.2.2.2.2.2.2.E Y B 8.9.2.2.2.2.2.2.2.2.2.2.2.2.2.2.2.2.2.2.2.2.0.q.Y G w.2.2.2.2.2.2.2.2.",
"~ ~ ~ ~ ~ ~ ~ ~ ~ ~ ~ ~ 9.o O + j ~ ~ ~ ~ ~ ~ ~ ~ ~ ~ ~ ~ ~ ~ ~ ~ ~ ~ ~ ~ . e.7.& r.v ~ ~ ~ ~ ~ ~ ~ ",
"' ' ' ' ' ' ' ' ' ' ' t.X o O + @     ' ' ' ' ' ' ' ' ' ' ' ' ' ' ' ' ' ' y.u.7.& * =   ' i.' ' ' ' ",
"p.p.p.p.p.p.p.p.p.p.p.a.s., O + @   d.p.p.p.p.p.p.p.p.p.p.p.p.p.p.p.p.p.p.f.g.% & * = h.#.j.p.p.p.p.",
"d d d d d d d d d d d u 7 8 O + @ . 9 $.d d d d d d d d d d d d d d d d d k.e r & * . t l.6 d d d d ",
"0 0 0 0 0 0 0 0 0 0 0 u i 8 O + @ . 9 p 0 0 0 0 0 0 0 0 0 0 0 0 0 0 0 0 0 a e r & * . t s d 0 0 0 0 ",
"0 0 0 0 0 0 0 0 0 0 0 u i 8 O + @ . 9 p 0 0 0 0 0 0 0 0 0 0 0 0 0 0 0 0 0 a e r & * . t s d 0 0 0 0 ",
"0 0 0 0 0 0 0 0 0 0 0 u i 8 O + @ . 9 p 0 0 0 0 0 0 0 0 0 0 0 0 0 0 0 0 0 a e r & * . t s d 0 0 0 0 ",
"0 0 0 0 0 0 0 0 0 0 0 u i 8 O + @ . 9 p 0 0 0 0 0 0 0 0 0 0 0 0 0 0 0 0 0 a e r & * . t s d 0 0 0 0 ",
"f f f f f f f f f f f g h 8 O + z.k l z f f f f f f f f f f f f f f f f f u x r & c v b n f f f f f ",
"x.x.x.x.x.x.x.x.x.x.x.c.v.r Y b.n.m.M.N.x.x.x.x.x.x.x.x.x.x.x.x.x.x.x.x.x.B.V.N C.Z.A.S.D.x.x.x.x.x.",
"8 8 8 8 8 8 8 8 8 8 8 8 B P P P 7.o , 8 8 8 8 8 8 8 8 8 8 8 8 8 8 8 8 8 8 8 B P P % o o , 8 8 8 8 8 ",
"P P P o o o o o o o o o o o o o o o o o o o o o o Y P P % o o o o o o o o o o o o o o o o o o o o o ",
"P P F.G.H.^ ^ ^ ^ ^ ^ ^ ^ ^ ^ ^ ^ ^ ^ ^ ^ ^ ^ ^ H.q.Y P J.K.^ ^ ^ ^ ^ ^ ^ ^ ^ ^ ^ ^ ^ ^ ^ ^ ^ ^ ^ ^ ",
"P Y E L.. . . . . . . . . . . . . . . . . . . . . P.o G I.~ . . . . . . . . . . . . . . . . . . . . ",
"P Y E )     ' ' ' ' ' ' ' ' ' ' ' ' ' ' ' ' ' ' ' _ o G ` =     ' ' ' ' ' ' ' ' ' ' ' ' ' ' ' ' ' ' ",
"P Y E )   t U.Y.Y.Y.Y.Y.Y.Y.Y.Y.Y.Y.Y.Y.Y.Y.Y.Y.Y.T., G ` =   d.Y.Y.Y.Y.Y.Y.Y.Y.Y.Y.Y.Y.Y.Y.Y.Y.Y.Y.",
"P Y E ) . O.R.0 0 0 0 0 0 0 0 0 0 0 0 0 0 0 0 0 0 @.8 G ` = ' #.$.0 0 0 0 0 0 0 0 0 0 0 0 0 0 0 0 0 ",
"P Y E ) . O.+.0 0 0 0 0 0 0 0 0 0 0 0 0 0 0 0 0 0 @.8 G ` = ' #.$.0 0 0 0 0 0 0 0 0 0 0 0 0 0 0 0 0 ",
"P Y E ) . O.+.0 0 0 0 0 0 0 0 0 0 0 0 0 0 0 0 0 0 @.8 G ` = ' #.$.0 0 0 0 0 0 0 0 0 0 0 0 0 0 0 0 0 ",
"P Y E ) . O.+.0 0 0 0 0 0 0 0 0 0 0 0 0 0 0 0 0 0 @.8 G ` = ' #.$.0 0 0 0 0 0 0 0 0 0 0 0 0 0 0 0 0 ",
"P Y E L.t.O.+.u 0 0 0 0 0 0 0 0 0 0 0 0 0 0 0 0 u E.8 G W.~ t.Q.$.0 0 0 0 0 0 0 0 0 0 0 0 0 0 0 0 0 ",
"P Y !.~.^./.(.).).).).).).).).).).).).).).).).)._.x r G `.'.].[.{.).).).).).).).).).).).).).).).).).",
"P P G }.|. X.X.X.X.X.X.X.X.X.X.X.X.X.X.X.X.X.X.X.XXXP P oX|.|. X.X.X.X.X.X.X.X.X.X.X.X.X.X.X.X.X.X.X",
"P P P P P P P P P P P P P P P P P P P P P P P P P P P P P P P P P P P P P P P P P P P P P P P P P P ",
"P P P P P P P P P P P P P P P P P P P P P P P P P P P P P P P P P P P P P P P P P P P P P P P P P P "
};
