/* XPM */
static char *result[] = {
/* columns rows colors chars-per-pixel */
"50 50 132 2 ",
"   c #000000",
".  c #120F06",
"X  c #151403",
"o  c #262600",
"O  c #2F2F00",
"+  c #313100",
"@  c #3E3E00",
"#  c #2B2814",
"$  c #462900",
"%  c #403E00",
"&  c #633C00",
"*  c #424200",
"=  c #4B4B00",
"-  c #5F4400",
";  c #545100",
":  c #644500",
">  c #6E4700",
",  c #714800",
"<  c #794900",
"1  c #6F7100",
"2  c #717100",
"3  c #797900",
"4  c #464225",
"5  c #484423",
"6  c #4F4929",
"7  c #504A2A",
"8  c #5F5B22",
"9  c #635E27",
"0  c #656129",
"q  c #6F6936",
"w  c #716B39",
"e  c #797243",
"r  c #945B00",
"t  c #9A5F00",
"y  c #9D6200",
"u  c #9A7017",
"i  c #A66700",
"p  c #A66E04",
"a  c #AB6A00",
"s  c #A67A1D",
"d  c #9A7828",
"f  c #957930",
"g  c #817946",
"h  c #858600",
"j  c #888700",
"k  c #868800",
"l  c #8A8A00",
"z  c #948C00",
"x  c #998E00",
"c  c #909000",
"v  c #A68F00",
"b  c #B68A00",
"n  c #AD9100",
"m  c #B29100",
"M  c #BB9300",
"N  c #B3AD2E",
"B  c #B5AF3F",
"V  c #C49500",
"C  c #CD9700",
"Z  c #D49700",
"A  c #D89700",
"S  c #D49900",
"D  c #DA9A00",
"F  c #EB9C00",
"G  c #F29E00",
"H  c #FF9F00",
"J  c #CDA717",
"K  c #D5AB1A",
"L  c #D8AB1C",
"P  c #EFA000",
"I  c #F4A100",
"U  c #FFA200",
"Y  c #FFA900",
"T  c #FFAE0D",
"R  c #EAAB14",
"E  c #EAB425",
"W  c #F1B727",
"Q  c #F3BA2C",
"!  c #FFBE2E",
"~  c #EDBA30",
"^  c #FFBE30",
"/  c #FFC134",
"(  c #F1C23E",
")  c #FFC43C",
"_  c #8D854E",
"`  c #948C52",
"'  c #988F54",
"]  c #9A9156",
"[  c #A69C5C",
"{  c #B7AE52",
"}  c #B0A663",
"|  c #C5BE47",
" . c #C8BE47",
".. c #C4BE49",
"X. c #D3B452",
"o. c #CAC24C",
"O. c #D3C248",
"+. c #CDC652",
"@. c #CEC55C",
"#. c #D0C752",
"$. c #D2CA54",
"%. c #D5CC5C",
"&. c #E7C547",
"*. c #ECC647",
"=. c #F5C645",
"-. c #FFC640",
";. c #F5C847",
":. c #FECA47",
">. c #FFCD4B",
",. c #FFCE51",
"<. c #FFD256",
"1. c #FFD55C",
"2. c #D8CF61",
"3. c #DDD264",
"4. c #E5D96F",
"5. c #FFD964",
"6. c #EADE76",
"7. c #EEE177",
"8. c #EDE179",
"9. c #FFE276",
"0. c #F1E47E",
"q. c #FFE47A",
"w. c #F2E581",
"e. c #F6E982",
"r. c #FFE982",
"t. c #F4E78B",
"y. c #FBED8F",
"u. c #FFF18F",
"i. c #FFF393",
"p. c #FFF896",
"a. c #FFF598",
"s. c #FFFA98",
/* pixels */
"                                                                                                    ",
"                                                                                                    ",
"                      $ < < , @ @ @ - < < , % % @ - < < < > @ @ @ : < < > * @ % : < < > % % % : < < ",
"                      y Y Y I z l k S Y Y I z l l C Y Y Y I l l l D U Y P l l l A Y Y I c l k Z Y Y ",
"                      t Y U G l l k C Y H G l l h C U U U F j k k D U U F l k k Z U U F l l j S U U ",
"                      t U U G z l k C U U G l j h C U H U F l l k Z U U F l l k Z U U F l l k S U H ",
"                      t Y H F l l k C U U G l l h C U U H F j l j Z U U F l l j Z Y H F l l j Z U U ",
"                      t Y U G z k k C U U G z j k C U U U F l l j D U U F l k k D U U F l j j Z U U ",
"                      t Y H G l l k C U U G l l k C Y U U F l l k D U U F l k j D U U F l l k Z U U ",
"                      d >.:.( l l k n V V M l l k v C V V m l l k m V V M l l l n V V M l l l n V V ",
"                      ] p.i.e.l k l k j l k l k k k k k k k k l l k j j k l l k k k k k l l l k j j ",
"                      ] p.i.w.c l l l l l l l k k l l l l l k l k l k l l l j l l l j l l k l k k l ",
"                      ] p.i.0.l k l l j k l l l j l l l l l l j l l l l l l l l l l l k l l l l l l ",
"                      # 7 6 5 o o o o o O + j k j M D D D D D D D D D D D D D D v k l 3 o o o o o o ",
"                                            h k h C U U U U U U U U U U U U U U m k l 2             ",
"                                            h h h C U U U U U U U U U U U U U U m h l 1             ",
"                                    o = = ; V C V F U H U U H U U U U U U H U U D V C b = = = X     ",
"                                    ; c l x H U U U U U U U U U U U U U U U U U U U U F z l l +     ",
"                                    = l k z H U U U U U U U U U U U U U U U U U U U U F l l l +     ",
"                                    = c l z I U H U U H U G S Z S S S S Z C S S G U U F l l c +     ",
"                                    ; l k z H U H U U H U F j k k k l k k k k h Z U U F l l l +     ",
"                                    ; l l z I U U U U U U F l k l l l k l l k k Z U U F l l l O     ",
"                                    = l k z U U U H U U H F k k l k k k k l l k Z U U F l l l O     ",
"      4 ] ` ` ` ` ` ` ` ` ` ` ` ` ` { #.+.O.U U H ! <.,.,.=.C C C C C C V l k j D Y U F l j z O     ",
"      g s.p.i.i.i.i.p.p.i.i.i.p.p.i.a.i.a.r.U U H ,.a.i.a.9.H U H H U U F l l k Z U H F l k l +     ",
"      g s.p.i.p.p.p.i.i.i.p.i.p.i.p.i.i.a.r.U U H ,.i.u.i.9.H H H H H H F l k h Z H H F l l c +     ",
"      4 ] ` ` ` ` ` ` ` ` ` ` ` ` ` X.,.,.>.U U H ,.i.i.u.r.) ) ) ) ) ) Q M M M E ) ) ~ l l l +     ",
"                                    r Y H H U U H ,.i.i.u.u.i.i.i.i.u.a.q.U U H 1.p.p.8.l l l O     ",
"                                    r Y H H H U H ,.i.i.i.u.i.u.u.u.u.i.q.U H H 1.a.i.6.c l l +     ",
"                                    r Y H H H H H ,.a.a.i.i.i.i.i.i.i.i.q.U H H 1.i.i.6.l l c +     ",
"                                    f 1.<.<.<.1.<.:.^ ) ^ ) ^ ^ ^ ) ) ^ ) <.<.<.r.i.i.6.l l l O     ",
"                                    ' a.i.i.a.a.a.^ H H H H H H H H H H T i.i.i.u.i.i.8.l l l O     ",
"                                    ' s.p.p.u.u.a.) H H H H H H H H H H T y.i.u.i.i.p.8.c k c +     ",
"                                    6 _ _ ] y.u.i.5.) -.-.-.-.-.-.-.-.-.,.u.i.i.3...o.B = = = X     ",
"                                          . t.i.y.i.i.i.i.a.a.i.a.i.i.i.i.u.u.i.N u k 1             ",
"                                          X t.i.i.i.u.i.y.i.y.u.y.u.i.y.i.y.i.a.N j k 1             ",
"                                          X t.u.u.i.u.i.u.i.u.i.i.u.i.u.i.u.i.i.N j l 2             ",
"                      & a i p [ [ [ [ [ [ } y.i.i.u.i.y.i.y.i.y.u.i.y.i.y.i.y.i.4.%.%.@.[ [ [ s i i ",
"                      y Y Y T u.i.p.i.p.p.i.i.i.y.u.i.i.u.u.i.i.i.i.y.u.i.i.i.i.i.i.i.i.p.i.s./ U Y ",
"                      t U U T u.a.i.i.i.i.i.i.i.i.a.i.i.a.i.i.i.i.i.a.i.i.i.i.i.i.i.p.i.i.p.a./ H U ",
"                      t Y H Y | ....&.:.:.;. .| ..&.:.:.:.=.| | | *.:.:.=.| | | &.:.:.;.| | | R U U ",
"                      t Y H G j k h C H U G j j h V U H H F j j j A H U F j j h Z H H F j j h Z U U ",
"                      t U H F l j h C U H G l j h C H H H F j l k Z H H F k l k Z U H F l l k Z H H ",
"                      u / ! W z l j J ^ ! W z l h J ^ ! ^ E l l k L ^ ^ E l k h L ^ ! E l k k K ^ ! ",
"                      ] p.i.0.l l h +.a.i.w.l l h o.a.i.i.6.l j j 2.i.i.7.l l h %.i.i.8.l l j %.i.i.",
"                      ] i.i.e.l k j +.i.i.e.z l h +.i.i.i.6.l l j 2.i.i.7.l l j %.p.i.7.l l j %.i.i.",
"                      ] s.p.e.c l k $.a.p.e.c l k +.a.p.p.7.l l k 3.a.a.8.l l k 3.p.p.0.l l j %.a.p.",
"                      5 e e w % @ @ 8 e e w @ @ @ 8 e e e q * @ @ 0 e e q * @ @ 9 e e q % @ @ 9 e e ",
"                                                                                                    ",
"                                                                                                    "
};
