/* XPM */
static char *result[] = {
/* columns rows colors chars-per-pixel */
"50 50 234 2 ",
"   c #000103",
".  c #030806",
"X  c #01040A",
"o  c #02090C",
"O  c #0B0C0C",
"+  c #11100F",
"@  c #000611",
"#  c #020B14",
"$  c #0A0E12",
"%  c #060C19",
"&  c #040C1C",
"*  c #081316",
"=  c #0D1215",
"-  c #07111D",
";  c #0C141B",
":  c #121314",
">  c #121619",
",  c #12181C",
"<  c #191A1D",
"1  c #061321",
"2  c #0A1422",
"3  c #0E1A23",
"4  c #07162C",
"5  c #0E1C2B",
"6  c #121C25",
"7  c #191F21",
"8  c #111D2B",
"9  c #0C1D33",
"0  c #101F31",
"q  c #162127",
"w  c #19222A",
"e  c #0F2435",
"r  c #192735",
"t  c #1C2C3B",
"y  c #1D323F",
"u  c #232323",
"i  c #292A2B",
"p  c #34302F",
"a  c #242B33",
"s  c #292D33",
"d  c #212F3C",
"f  c #2B3336",
"g  c #24323C",
"h  c #2A353C",
"j  c #323433",
"k  c #31363A",
"l  c #333A3D",
"z  c #1B2F41",
"x  c #1D3243",
"c  c #173049",
"v  c #1C354B",
"b  c #1E394E",
"n  c #0C3A5C",
"m  c #163757",
"M  c #1B3654",
"N  c #163956",
"B  c #1D3A54",
"V  c #153B5D",
"C  c #1C3C5C",
"Z  c #233544",
"A  c #293743",
"S  c #253946",
"D  c #2B3A44",
"F  c #21364A",
"G  c #233A4C",
"H  c #2A3B4A",
"J  c #313D47",
"K  c #233C53",
"L  c #283E51",
"P  c #223E5A",
"I  c #0C3C63",
"U  c #163D63",
"Y  c #1A3E62",
"T  c #153F68",
"R  c #203D60",
"E  c #403F41",
"W  c #1E415C",
"Q  c #2F404C",
"!  c #33414D",
"~  c #3F464B",
"^  c #254055",
"/  c #2C4253",
"(  c #23415B",
")  c #2C455B",
"_  c #2E495E",
"`  c #314555",
"'  c #32475A",
"]  c #374A5A",
"[  c #0E426A",
"{  c #174267",
"}  c #1C4164",
"|  c #16426A",
" . c #244463",
".. c #2C4963",
"X. c #294866",
"o. c #304762",
"O. c #324A63",
"+. c #3C5569",
"@. c #494847",
"#. c #4B4B4A",
"$. c #504D4C",
"%. c #4A4E53",
"&. c #4A5255",
"*. c #545658",
"=. c #495B6A",
"-. c #505F6B",
";. c #605E61",
":. c #4C626E",
">. c #52636E",
",. c #59656C",
"<. c #4D6272",
"1. c #576976",
"2. c #646565",
"3. c #686766",
"4. c #696966",
"5. c #656768",
"6. c #666869",
"7. c #6A6B6C",
"8. c #726F6F",
"9. c #666C72",
"0. c #6E757B",
"q. c #777777",
"w. c #72767A",
"e. c #807A78",
"r. c #5B7083",
"t. c #667885",
"y. c #7C7F84",
"u. c #6E858F",
"i. c #74858E",
"p. c #798389",
"a. c #6E8694",
"s. c #6D8998",
"d. c #728793",
"f. c #798792",
"g. c #748994",
"h. c #7B8994",
"j. c #758A9C",
"k. c #7B8C9A",
"l. c #7A93A7",
"z. c #898886",
"x. c #8B8E93",
"c. c #8D9194",
"v. c #8A9199",
"b. c #989797",
"n. c #9B9C9C",
"m. c #A1A09E",
"M. c #8599A5",
"N. c #949CA3",
"B. c #9D9FA1",
"V. c #939EA8",
"C. c #8EA1AC",
"Z. c #9DA1A3",
"A. c #9AA5AA",
"S. c #94A9B9",
"D. c #9EB2BD",
"F. c #A2A2A3",
"G. c #A5A8A9",
"H. c #ABABAB",
"J. c #B1AEAD",
"K. c #B3B2AD",
"L. c #BBB3AF",
"P. c #A5ADB2",
"I. c #ABAEB1",
"U. c #A3B3BB",
"Y. c #A8B3B9",
"T. c #A9B2BB",
"R. c #B5B6B7",
"E. c #BCB6B3",
"W. c #BCB9B6",
"Q. c #B4B6BA",
"!. c #B7B9BD",
"~. c #BCBBBB",
"^. c #C2BBB6",
"/. c #C1BDBA",
"(. c #BDC1BF",
"). c #C3C1BE",
"_. c #CBC3BE",
"`. c #9FB4C1",
"'. c #A5B7C3",
"]. c #AEBDCC",
"[. c #B3BCC5",
"{. c #BCBDC1",
"}. c #AEC0CF",
"|. c #BEC2C5",
" X c #B7C1CB",
".X c #BDC4CC",
"XX c #B3C6D5",
"oX c #BECDD5",
"OX c #BED0DC",
"+X c #C2C4C4",
"@X c #CAC6C3",
"#X c #C6CBC7",
"$X c #CBC8C4",
"%X c #C4C7CA",
"&X c #C6CBCC",
"*X c #CBCBCC",
"=X c #D1CCC7",
"-X c #D2D0CE",
";X c #CBCED1",
":X c #C9D3D7",
">X c #C5D9DC",
",X c #CAD9DC",
"<X c #D4D4D4",
"1X c #D9D6D4",
"2X c #D4D6D8",
"3X c #D6D9DB",
"4X c #DAD9D8",
"5X c #E4DFDA",
"6X c #E4E1DD",
"7X c #ECE6DF",
"8X c #CDDDE6",
"9X c #D8DEE1",
"0X c #DCE5E9",
"qX c #DDF4F6",
"wX c #E3E5E4",
"eX c #E8E8E6",
"rX c #E2E7E9",
"tX c #EDEDEB",
"yX c #F3EDE5",
"uX c #F1EEEC",
"iX c #EEF1EC",
"pX c #F1F1EE",
"aX c #FAF7EF",
"sX c #E7EFF5",
"dX c #ECEFF2",
"fX c #F0EFF0",
"gX c #E3F4F5",
"hX c #EDF3F4",
"jX c #E9F7F9",
"kX c #F2F3F2",
"lX c #F4F6F7",
"zX c #FEFCF7",
"xX c #F5FDFE",
"cX c #FDFFFE",
/* pixels */
"  5.iXcXcXcXcXzXcXcXcXcXcXcXcXcXcXcXcXxXcXcXcXcXcXcXcXzXcXcXzXzXzXcXzXzXcXzXzXcXzXcXcXcXhX#X(.K.%.. ",
"  ,.lXcXcXcXcXcXcXcXcXcXcXcXcXcXcXcXcXcXcXcXcXcXcXcXcXcXcXcXcXcXcXcXcXcXcXcXcXcXcXcXcXcXlX#X~.H.#.. ",
"O 6.rXlXtXkXuXuXuXfXfXfXfXfXfXdXhXdXfXfXiXpXpXpXyXpXpXpXpXpXpXpXtXtXtXuXpXpXyXtXiXiXtXiXwX#X(.P.%.o ",
"n.z.7.4.5.3.3.3.3.3.5.3.3.5.5.5.3.5.5.5.2.2.2.4.4.4.2.4.6.6.5.5.5.7.5.5.5.5.2.4.4.4.2.;.p.&XtX2X9.q ",
"cXF.:                     X X                   .       X X   X X X X                   j ;XcXhXp.g ",
"cXZ.:         o   X o X X o @ o X   X X             X X o o X @ & @ X X X # X     . .   f &XcXgXi.S ",
"cXZ.,   o , 6 8 8 8 5 8 5 5 5 5 5 8 8 3 6 l 2.7.$.< X # 2 5 5 5 0 0 8 5 8 0 8 6 3 , 3 ; ~ >XzXqXd.G ",
"cXZ., X % g D H G G v M B K b v G L S Z g p.0XcX|.k   # r G G v G P P K P K K G H Z y x >.>XxXqXs.B ",
"cXZ.; X ; Z / G K (  .( V C W ( ( ( K x z p.xXcX:Xj   o r Q ^ ^ P B C Y P P ( ( / L H F <.>XxXqXs.C ",
"cXN.;   - Z L K C ( X.} W } } } ( ( +.<.-.N.hXcX<X&.q a d y v b N C V C V Y R R P ^ L v :.>XxXqXs.^ ",
"cXF.>   % g L P W C U U | { } V V ..M.8X,XrXxXcXeXJ.n.c.~ * * r /  .R Y Y Y Y B B P L v <.>XxXqXa.b ",
"cXF.:   % g L K C Y n U | | { V N ..`.xXcXcXcXcXuX-X@XE.#.  X 5 L ( }  .} Y Y Y P K L G <.>XcXgXi.b ",
"cXm.:   % Z L P C Y U | | | T Y N X.D.xXxXxXxXcXpX_.(.K.#.  # 5 F M Y Y U U Y Y R P L F >.,XcXgXa.v ",
"cXB.= X - Z K P Y } T { | } Y Y N ( D.xXxXxXxXcXkX_.(.K.#.  o 5 G P Y } T U Y R R P G F :.,XcXqXi.v ",
"cXB.: X 1 z K P C C U U U Y C C M ) D.xXxXxXxXcXhX#X~.K.#.  X 3 F M C T R U Y Y P P K F <.>XcXgXu.v ",
"cXZ.; X & t G K B B C C C B K v x ] Y.xXcXxXxXcXiX#X(.K.$.    3 F K K P R R C M K K L S :.>XxXqXg.^ ",
"cXZ.=   8 9.h.k.g.j.j.j.j.j.h.f.p.v.:XcXcXhXwXwX4X+X~.E.z.4.5.0.h.h.j.j.j.j.j.g.j.>.d 8 &.:XcXgXg.G ",
"cXn.:   k .XxXhXhXhXhXdXdXdXkXkXkXuXaXcXcX7X/.W.~././.).1XyXiXhXhXhXgXhXsXgXhXjXlXb.:   l ;XcXgXi.Z ",
"cXF.:   l 2XcXcXcXcXcXcXcXcXcXcXcXcXzXzXzX6X/.W.~.W.W./.eXcXcXcXcXcXcXcXcXcXcXcXcXF.:   j ;XcXhXi.S ",
"cXZ.:   s P.9X3XrXdXkXfXuXuXyXyXyXyXaXzXzX6X).~.{.#X#X$X6XpXkXkXfXkXhXdXdXdX4X<X-Xy.O   k &XcXgXg.H ",
"cXZ.,   , %.-.5.N.%X%X*X%X@X@X/._._.7XzXzX7X).R.+XrXkXdX1X#X#X%X%X%X@X%X;X#X7.j j u .   l &XcXgXg.G ",
"cXZ.;   - a g J f.[.[.[.{.{.^.E.^.^.5XzXcXwX~.R.%XkXcXxX2X!.!.~.[.{.{.{.%XR.#.      .   l &XcXgXd.b ",
"cXZ.=   ; d D ` k.].T.T.{.%X{./.^.@X6XcXcXwX).(.;XhXcXlX3X{.{.{.{.{.~.Q.E.H.#.    O * . D oXzXgXa.b ",
"cXN.,   - d D L =.r.1.v.].].%X9X6XwXkXcXcXpXwXwXrXxXcXxX2X~.~.Q.E.).G.2.#.@.u . . * 7 6 &.OXxXqXa.B ",
"cXZ.>   - g H F v G G r.`.}.oXsXcXcXcXcXcXcXcXcXcXcXcXzX1XW.~.W.L.).b.u .     o . * y g ,.>XcXqXs.G ",
"cXF.;   - Z ^ G K b K r.'.}.oXhXcXcXxXcXcXcXcXcXcXcXcXzX1XW.W.W.^.).b.i     X o o 7 D S <.>XxXgXa.b ",
"cXm.:   - x Q ^ K K P t.OX8X0XjXxXxXdX9XwXwXrXrXrXxXcXcXwX<X1X*X).).b.i     ; 8 5 y Q b :.>XxXgXd.G ",
"cXF.,   - t ^ ^ K K G f.qXxXxXxXcXlX9X{.{.{.%X{.;XhXcXcXzXzXcX6X)._.b.p   o w H G ^ W v :.>XcXqXd.H ",
"cXB.:   - t L K B v F f.hXcXcXcXcXxX4X{.{.{.{.{.;XhXcXcXcXcXcXeX).~.c.u   X r / K W ^ B <.>XcXgXd.H ",
"cXB.; X - x K K X.+.+.M.jXcXxXfXdXtX<X~.~.I.N.c.G.6XlXfXkXiXkXwX-X*Xm.$.u a h x c c ^ b <.,XcXgXi.D ",
"cXB., X - y G ) t.`.S..XxXcXkX<X@X@X/.E./.z.j u @.H.-X;X%X%X&X4XtXhX5XJ.n.c.~ * 1 e b v :.,XcXgXf.D ",
"cXZ.; X - x ^ ) l.XX].,XxXcXkX@XE.^./.)./.8.O   u B.*X|.[.!.!.2XzXcXaX$X#XR.&.. # 5 x Z :.,XcXhXf.D ",
"cXF.; X 2 F L ) j.XX}.,XlXcXyX@XE.^.^.W.L.3.O   i c.^.R.!.[.{.2XlXcXyX$X).W.&.X X 6 S Z >.,XcXhXp.H ",
"cXB.$ X - Z S L C.0X0X9X4X1X-X^.^.E.e.$.$.p O   + E %.*.v.|.{.@X4X1X1X5XyX1X*.X X q H Z >.,XcXgXi.Z ",
"cXB.:   - Z Z L U.xXcXrX+XW.W.^._.E.@.    . . .   X   O w.+X+X{.W.^.$XpXcXuX3.X o 8 H Z >.,XcXhXi.Z ",
"cXF.>   - D J ] U.cXcX0X{.W.^./._.K.#.    X X X o     O w.+X+X{.W.^.$XaXcXfX7.X X 8 H Z >.,XcXgXi.S ",
"cXm.:   : h J ~ A.0XrX!.q.8.q.q.q.7.p o X # 3 8 8 6 > q &.q.w.q.w.8.z.=XyX4X;.X @ 8 H Z -.:XcXgXd.S ",
"zXm.+   : g D J k..X{.w.7 O + + $ $ % # # 5 Z H G Z D f q = $ = < O p n.*XE.$.X @ 8 H F <.>XcXgXu.x ",
"cXm.:   $ g D J v. X.Xw.O         X @ # # 9 G / L ^ H D >     X     u b.-XE.%.X @ 8 L F <.>XxXgXa.v ",
"cXm.:   $ g J J t.V.N.,.$   X $ 2 1 1 1 4 e B W P K ^ S w * 1 1 1 % a y.F.v.E % @ 5 S G <.>XxXqXa.K ",
"cXn.=   - g D H Z d a 7 @ X % r Z Z x c v N C C C C P P M c v v v x Z a a a ; o @ 5 x v <.>XxXqXg.L ",
"cXB.$   # t S x 1 X     X X & a Z G G B B V m V V m M C M M C N B G t o         X 2 y y :.>XcXgXg.G ",
"cXF.a $ q ! ] Q r 3 2 3 3 3 w D ! ` / ) _ X._ X.......o.o.o...o./ / Z q ; : : = ; r ] / 1.OXxXqXu.Z ",
"4X+XZ.n.Z.P.U.P.A.N.N.N.B.N.B.P.Y.Y.U.D.D.D.D.D.U.'.T.T.'.T.U.U.P.U.P.Z.n.m.n.n.N.G.Y.P.'.oX8X:Xt.S ",
"~.4XcXcXcXcXxXcXcXcXcXcXcXcXcXcXcXcXcXxXcXxXxXcXcXcXcXcXcXcXcXcXcXcXcXcXcXcXcXcXcXcXxXcXjXOX}.}.9.H ",
"{.4XcXcXcXxXxXcXcXcXcXcXcXcXcXcXcXcXcXcXxXcXxXcXcXcXcXcXcXzXcXcXcXcXcXcXcXcXcXcXcXcXcXxXjXOXXX'.1.Z ",
"t.x.P.'.U.U.D.D.D.U.U.U.T.T.T.P.Y.U.U.D.U.D.Y.U.T.Y.Y.Y.Y.U.D.D.`.'.'.T.'.T.T.T.U.U.Y.U.S.l.k.g.%.w ",
"2 t ' ' ..O..._ X._ ' ) ` ` ` ` / ) ) _ ) _ _ O.] ' ` ` _ _ W W X.X.X...o.] O.O.O...O.O._ / ` Q 8 # ",
"@ 4 c M M Y V m N N B B v v b b B B N B N N B b b v v b W N n [ I T T U m M M P R m m M M M H Z 6 X ",
"& 9 M R R  .Y V U W P P C P ^ ( W ( } W B C W ^ ^ B B W W W [ [ [ [ | T U V C R R R R m P K L A 6 X "
};
