/* XPM */
static char *result[] = {
/* columns rows colors chars-per-pixel */
"50 50 132 2 ",
"   c #000000",
".  c #120F06",
"X  c #151403",
"o  c #262600",
"O  c #2F2F00",
"+  c #313100",
"@  c #3E3E00",
"#  c #2B2814",
"$  c #462900",
"%  c #403E00",
"&  c #633C00",
"*  c #424200",
"=  c #4B4B00",
"-  c #5F4400",
";  c #545100",
":  c #644500",
">  c #6E4700",
",  c #714800",
"<  c #794900",
"1  c #6F7100",
"2  c #717100",
"3  c #797900",
"4  c #464225",
"5  c #484423",
"6  c #4F4929",
"7  c #504A2A",
"8  c #5F5B22",
"9  c #635E27",
"0  c #645F28",
"q  c #656129",
"w  c #6F6936",
"e  c #716B39",
"r  c #797243",
"t  c #945B00",
"y  c #9A5F00",
"u  c #9D6200",
"i  c #9A7017",
"p  c #A66700",
"a  c #A66E04",
"s  c #AB6A00",
"d  c #A67A1D",
"f  c #9A7828",
"g  c #957930",
"h  c #817946",
"j  c #858600",
"k  c #888700",
"l  c #868800",
"z  c #8A8A00",
"x  c #948C00",
"c  c #998E00",
"v  c #909000",
"b  c #A68F00",
"n  c #B68A00",
"m  c #AD9100",
"M  c #B29100",
"N  c #BB9300",
"B  c #B3AD2E",
"V  c #B5AF3F",
"C  c #C49500",
"Z  c #CD9700",
"A  c #D49700",
"S  c #D89700",
"D  c #D49900",
"F  c #DA9A00",
"G  c #EB9C00",
"H  c #F29E00",
"J  c #FF9F00",
"K  c #CDA717",
"L  c #D5AB1A",
"P  c #D8AB1C",
"I  c #EFA000",
"U  c #F4A100",
"Y  c #FFA200",
"T  c #FFA900",
"R  c #FFAE0D",
"E  c #EAAB14",
"W  c #EAB425",
"Q  c #F1B727",
"!  c #F3BA2C",
"~  c #FFBE2E",
"^  c #EDBA30",
"/  c #FFBE30",
"(  c #FFC134",
")  c #F1C23E",
"_  c #FFC43C",
"`  c #948C52",
"'  c #988F54",
"]  c #9A9156",
"[  c #A69C5C",
"{  c #B7AE52",
"}  c #B0A663",
"|  c #C5BE47",
" . c #C8BE47",
".. c #C4BE49",
"X. c #D3B452",
"o. c #CAC24C",
"O. c #D3C248",
"+. c #CDC652",
"@. c #CEC55C",
"#. c #D0C752",
"$. c #D5CC5C",
"%. c #D8CF5E",
"&. c #E7C547",
"*. c #ECC647",
"=. c #F5C645",
"-. c #FFC640",
";. c #F5C847",
":. c #FECA47",
">. c #FFCD4B",
",. c #FFCE51",
"<. c #FFD256",
"1. c #FFD55C",
"2. c #D8CF61",
"3. c #DDD264",
"4. c #E5D96F",
"5. c #FFD964",
"6. c #EADE76",
"7. c #EEE177",
"8. c #EDE179",
"9. c #FFE276",
"0. c #F1E47E",
"q. c #FFE47A",
"w. c #F2E581",
"e. c #F6E982",
"r. c #FFE982",
"t. c #F4E78B",
"y. c #FBED8F",
"u. c #FFF18F",
"i. c #FFF393",
"p. c #FFF896",
"a. c #FFF598",
"s. c #FFFA98",
/* pixels */
"                                                                                                    ",
"                                                                                                    ",
"r r 0 @ @ * w r r q @ @ @ w r r q @ @ @ w r r r 8 @ @ @ e r r 9 @ @ * e r r 4                       ",
"i.p.%.l z z 0.i.i.3.z z z 0.i.p.3.z v z 8.a.i.p.#.z z v e.i.p.#.z z x e.i.s.]                       ",
"i.i.$.j z z 7.i.i.$.j z z 6.i.i.%.l z z 6.i.y.i.+.j z z w.i.i.+.j z z 0.i.i.]                       ",
"i.i.$.j z z 7.i.a.%.j k z 8.i.i.2.j l z 6.i.i.a.+.j z z e.i.a.+.j z z w.i.p.]                       ",
"~ / L l z z Q ( / P j z z W ~ / P l z z W ~ ~ / K j z x Q / / K j z z Q ( ( i                       ",
"J J A j z z G J Y A l z z G J J S l z z G J J J Z l z z H J Y Z l z z H Y Y y                       ",
"Y Y A j j l G J Y A j j k G J Y A j k j G Y Y Y Z j j z H Y J Z j j z U Y Y y                       ",
"Y J E ..| o.;.:.:.*.| | | ;.:.:.*.| | | =.:.:.:.*.{ o.o.;.:.:.&.| o.| U Y T u                       ",
"Y Y / a.i.a.i.i.i.i.i.i.i.i.i.i.i.i.i.i.i.i.i.i.p.i.i.i.i.i.i.i.i.i.y.R Y T y                       ",
"Y Y ( a.i.p.i.i.i.i.i.i.i.y.i.i.i.i.i.i.i.i.y.i.u.u.u.i.p.i.i.i.p.i.u.R Y T u                       ",
"p p d [ [ [ @.%.$.4.i.i.i.y.i.y.i.i.y.i.y.i.i.u.i.i.i.y.} [ [ [ [ [ [ a p s &                       ",
"            1 z j B i.i.i.i.y.i.y.i.i.y.i.y.y.i.i.i.i.t.X                                           ",
"            2 z j B i.i.y.y.i.i.i.i.u.i.i.i.i.y.i.y.i.t.X                                           ",
"            2 z j B i.i.i.i.i.i.i.i.i.i.i.i.i.i.i.i.i.t..                                           ",
"    X = * = V +. .2.i.i.i.,.-.-._ -.-.-.:.:.-.-.5.i.i.y.' h ` 7                                     ",
"    + v z x 6.a.i.i.i.i.y.R J J J J J J J J J J / a.i.y.i.a.s.'                                     ",
"    + z z z 6.i.i.i.i.i.i.R J J J J J J J J J J -.a.a.i.i.i.s.'                                     ",
"    + v z z 8.i.i.r.,.1.<._ ( ( ( ( ( / / / / / :.1.<.<.1.1.1.g                                     ",
"    + z z z 8.i.i.1.J J Y q.i.i.a.i.i.i.i.y.i.i.,.J Y J J J Y t                                     ",
"    + v z z 6.i.i.1.J J Y 9.i.i.i.i.i.i.i.i.i.i.,.J Y Y J Y Y t                                     ",
"    O z z z 6.i.i.5.J Y Y q.i.i.i.i.i.i.i.i.i.i.>.J Y Y J Y T t                                     ",
"    + z k z ^ _ _ W N N N ! _ _ / -._ _ r.y.i.i.,.J Y Y :.<.<.X.` ` ` ` ` ` ` ` ` ` ` ` ` ] 4       ",
"    + z z z G Y Y S l l l G Y Y J J J Y 9.i.y.a.,.J Y Y r.a.i.i.i.p.i.p.i.i.p.i.i.i.p.i.p.s.h       ",
"    + z z z G Y Y D l l z I Y Y Y Y Y Y 9.a.i.a.,.J Y Y r.i.i.i.p.i.p.i.i.p.i.p.p.p.i.p.i.s.h       ",
"    + v z z G Y Y D l z z C Z Z Z Z Z Z =.,.,.<.~ J Y Y O.+.+.{ ` ` ` ` ` ` ` ` ` ` ` ` ` ] 4       ",
"    + z z z G Y Y S l z l l l l l z l l G J J J J J Y J x l z =                                     ",
"    + z k z G J Y D l z z z z l z z z z G J Y Y Y J Y Y x z z ;                                     ",
"    + x z z G Y Y S l l l l l l l l l z G Y Y Y Y Y Y Y x z z ;                                     ",
"    + z z z G Y Y G D Z D D D D D Z D A H Y Y Y Y Y Y U x l z ;                                     ",
"    + z k z G Y Y Y Y Y Y Y Y Y Y Y Y Y Y Y J Y Y J Y Y x l v =                                     ",
"    + v z z H Y Y Y Y Y Y Y Y Y Y Y Y Y Y Y Y Y J Y Y Y c x v ;                                     ",
"    X = = = n Z Z F Y Y Y J J Y J Y J Y Y J Y Y G C Z C ; = = o                                     ",
"            1 l l M Y Y Y Y Y Y Y Y Y Y Y Y Y Y C j l j                                             ",
"            2 z l M Y Y Y Y Y Y Y Y Y Y Y Y Y Y Z j j j                                             ",
"o o o o o o 3 z z b F F F F F F F F F F F F F F N l z j + o o o o o o 5 6 7 #                       ",
"z z l z z z z z z z z j z z k z k z z z z z z z z l k z z z z l z z z 0.i.p.]                       ",
"z z l z z z z z k z z z z z z z z z z z z z l l l l z z j z l z z z z w.i.p.]                       ",
"l l l z z j l l j l z l z l l j l l z z l j l l z z z l l z l z l z v w.i.p.]                       ",
"C C m l z z N C C m z z z N C C m l z z N C C C m l z z N C C m z z z ) :.>.f                       ",
"Y Y S l z z G Y Y F l l z G Y Y F l z z G Y Y Y Z j z x U Y Y D l z z H Y Y y                       ",
"Y Y S l z z G Y Y S l z z G Y Y S l z z G Y Y Y Z l z z H Y Y Z l z z H Y Y y                       ",
"Y Y A j z z G Y Y S l l z G Y Y S l z z G Y Y Y Z l z z H Y Y Z j z z U Y T y                       ",
"Y Y S l z z G Y Y D l z z G Y Y D l z z G Y Y Y Z l l z H Y Y Z l z z H Y T u                       ",
"Y Y D l z z G Y Y S l z z G Y Y F l z z G Y Y Y Z l z z U Y Y Z l l z H Y T y                       ",
"Y T D z z v U Y T F z z z I Y T F z v z I Y Y T D l z x U Y T D z z x U Y T u                       ",
"< < : @ @ @ > < < : @ @ % > < < : @ @ @ > , < < - @ @ % , < < - @ @ @ , < < $                       ",
"                                                                                                    ",
"                                                                                                    "
};
