/* XPM */
static char *result[] = {
/* columns rows colors chars-per-pixel */
"50 50 144 2 ",
"   c black",
".  c #191919",
"X  c #101010",
"o  c #646464",
"O  c #676767",
"+  c gray25",
"@  c gray40",
"#  c gray39",
"$  c #3F3F3F",
"%  c gray15",
"&  c gray14",
"*  c #494949",
"=  c #656565",
"-  c #555555",
";  c #3C3C3C",
":  c #3E3E3E",
">  c gray20",
",  c #020202",
"<  c gray11",
"1  c gray24",
"2  c gray6",
"3  c gray22",
"4  c gray1",
"5  c gray18",
"6  c DimGray",
"7  c #393939",
"8  c #535353",
"9  c #2D2D2D",
"0  c #636464",
"q  c #171818",
"w  c #0E0E0E",
"e  c #0B0B0B",
"r  c gray5",
"t  c #272727",
"y  c #585858",
"u  c gray35",
"i  c #636262",
"p  c #655656",
"a  c #655555",
"s  c #231F1F",
"d  c #0C0C0C",
"f  c #060606",
"g  c #606060",
"h  c #626262",
"j  c #5D5D5D",
"k  c #010101",
"l  c gray10",
"z  c #645B5B",
"x  c #730B0B",
"c  c #750303",
"v  c #740303",
"b  c #654A4A",
"n  c #606262",
"m  c gray17",
"M  c #5F5F5F",
"N  c #181818",
"B  c #740808",
"V  c #750000",
"C  c #674B4B",
"Z  c #636565",
"A  c #740505",
"S  c #760000",
"D  c #6A4D4D",
"F  c #666868",
"G  c #282828",
"H  c gray29",
"J  c #646060",
"K  c #6A3E3E",
"L  c #6A3B3B",
"P  c #382C2C",
"I  c gray16",
"U  c gray7",
"Y  c #636666",
"T  c #626666",
"R  c #161616",
"E  c #131313",
"W  c gray2",
"Q  c #5A5A5A",
"!  c #5B5B5B",
"~  c gray36",
"^  c #313131",
"/  c gray21",
"(  c #353535",
")  c #464646",
"_  c #645C5C",
"`  c #6B3737",
"'  c #6B3636",
"]  c #6B3838",
"[  c #645D5D",
"{  c #4B4B4B",
"}  c #2C2C2C",
"|  c #3A3A3A",
" . c gray13",
".. c #665252",
"X. c #750101",
"o. c #665555",
"O. c #232323",
"+. c #665353",
"@. c #740404",
"#. c #665454",
"$. c #740707",
"%. c #645F5F",
"&. c #645E5E",
"*. c #636161",
"=. c #655959",
"-. c #711515",
";. c #730A0A",
":. c #730909",
">. c #684646",
",. c gray23",
"<. c #730C0C",
"1. c #694242",
"2. c #434343",
"3. c gray31",
"4. c #636060",
"5. c #6E2929",
"6. c #6F1F1F",
"7. c #701E1E",
"8. c #674D4D",
"9. c #694343",
"0. c #222222",
"q. c #6B3535",
"w. c #711616",
"e. c #711818",
"r. c #655A5A",
"t. c #674E4E",
"y. c gray28",
"u. c gray27",
"i. c #565656",
"p. c gray30",
"a. c gray9",
"s. c #040404",
"d. c #151515",
"f. c gray3",
"g. c #252525",
"h. c #373737",
"j. c #414141",
"k. c #505050",
"l. c gray34",
"z. c gray32",
"x. c #2A2A2A",
"c. c #323232",
"v. c #1B1B1B",
"b. c white",
/* pixels */
"                                                                                                    ",
". . . . . X                                                                             X . . . . . ",
"o o o o O +                                                                             + O o o o o ",
"@ @ o # @ $                                                                             $ @ # o @ @ ",
"% & * = o - ; : > ,                 < $ 1 1 1 1 1 1 1 1 2                       , > : ; - o = * & % ",
"    3 @ # o @ O - 4                 5 6 @ @ @ @ @ @ @ @ .                       4 - O @ o # @ 3     ",
"    7 @ # # # o 8 ,                 9 @ o # # # # 0 0 # q                       , 8 o # # # @ 7     ",
"w e $ = # # # o - X w r ,           t y - u # # i p a a s d w f           , r w X - o # # # = $ e w ",
"g g h # # # # # # g g j r           k 4 k l # # z x c v b n # m           r j g g # # # # # # h g g ",
"# # # # # # # # # # # M w                 N # # z B V V C Z @ 9           w M # # # # # # # # # # # ",
"@ @ o # # # # # # # # M w                 N # # z A S V D F 6 5           w M # # # # # # # # o @ @ ",
"G % H = # # # # # # # M w                 N # # J K L L P t I U           w M # # # # # # # = H % G ",
"    3 @ # # # # # # # M w                 N # # # Y T T R                 w M # # # # # # # @ 3     ",
"f 4 ; @ # # # # # # # g E W f f f f 4     N # # # # # # N     4 f f f f W E g # # # # # # # @ ; 4 f ",
"Q Q M # # # # # # # # # ! Q Q Q Q ~ ^     N # # # # # # N     ^ ~ Q Q Q Q ! # # # # # # # # # M Q Q ",
"# # # # # # # # # # # # # # # # # @ /     N # # # # # # N     / @ # # # # # # # # # # # # # # # # # ",
"@ @ @ @ @ = # # 0 T T T # # # # # @ (     R # # # # # # R     ( @ # # # # # T T T 0 # # = @ @ @ @ @ ",
"/ / / / ( ) o # _ ` ' ] [ # # # # = { } } | # # # # # # | } } { = # # # # [ ] ' ` _ # o ) ( / / / / ",
"           .= 0 ..V S X.o.0 # # # # o @ @ = # # # # # # = @ @ o # # # # 0 o.X.S V ..0 =  .          ",
"          O.= 0 +.c V @.o.0 # # # # # # # # # # # # # # # # # # # # # # 0 o.@.V c +.0 = O.          ",
"    4 W , t = 0 #.$.A B ..%.&.*.# # # # # # # # # # # # # # # # # # *.&.%...B A $.#.0 = t , W 4     ",
"    > ! u ~ # # *.=.=.p -.;.:.>.Z # # # # # # # # # # # # # # # # Z >.:.;.-.p =.=.*.# # ~ u ! >     ",
"    ,.6 @ = # # # # # J <.S S 1.Z # 0 Z Z Z # # # # # # Z Z Z 0 # Z 1.S S <.J # # # # # = @ 6 ,.    ",
"    t ) 2.3.o # # # # 4.5.6.7.8.Z 0 o.9.9.C # # # # # # C 9.9.o.0 Z 8.7.6.5.4.# # # # o 3.2.) t     ",
"          0.= # # # # # Z Z Z 0 # T q.S S w.# # # # # # w.S S q.T # 0 Z Z Z # # # # # = 0.          ",
"          O.= # # # # # # # # # # T ' V V e.# # # # # # e.V V ' T # # # # # # # # # # = O.          ",
"          O.= # # # # # # # # # # T ' V V e.# # # # # # e.V V ' T # # # # # # # # # # = O.          ",
"          O.= # # # # # # # # # # 0 r.t.t.#.# # # # # # #.t.t.r.0 # # # # # # # # # # = O.          ",
"          O.= # # # # # # # # # # # 0 0 0 0 # # # # # # 0 0 0 0 # # # # # # # # # # # = O.          ",
"          & O = = # # # # # # # # # o = = = # # # # # # = = = o # # # # # # # # # = = O &           ",
"          . y.u.H h # # # # # # # o i.u.u.p.# # # # # # p.u.u.i.o # # # # # # # h H u.y..           ",
"                2 g # # # # # # # @ (     a.# # # # # # a.    ( @ # # # # # # # g 2                 ",
"                X g # # # # # # # @ /     N # # # # # # N     / @ # # # # # # # g X                 ",
"                X g # # # # # # # @ /     N # # # # # # N     / @ # # # # # # # g X                 ",
"                s.d.R R R R R R R R d     N # # # # # # N     d R R R R R R R R d.s.                ",
"                                          a.# # # # # # a.                                          ",
"                                    f.U X g.# # # # # # g.X U f.                                    ",
"                                    } o h h # # # # # # h h o }                                     ",
"                                    9 @ # # # # # # # # # # @ 9                                     ",
"                                    m @ # # # # # # # # # # @ m                                     ",
"                      , h.j.+ + + $ k.o # # # # # # # # # # o k.$ + + + j.h.,                       ",
"                      s.l.@ @ @ @ @ o # # # # # # # # # # # # o @ @ @ @ @ l.s.                      ",
"                      s.- o # # # # # o o o # # # # # # o o o # # # # # o - s.                      ",
"                      s.- o # # # # ~ z.z.l.# # # # # # l.z.z.~ # # # # o - s.                      ",
"                      s.- o # # # @ h.    . # # # # # # .     h.@ # # # o - s.                      ",
"                      s.y O @ @ @ 6 3     . @ @ @ @ @ @ .     3 6 @ @ @ O y s.                      ",
"                      , x.^ ^ ^ ^ c.v.    d ^ ^ ^ ^ ^ ^ d     v.c.^ ^ ^ ^ x.,                       ",
"                                                                                                    ",
"k k k k k k k k k k k k k k k k k k k k k k k k k k k k k k k k k k k k k k k k k k k k k k k k k k ",
"d.d.d.d.d.d.d.d.d.d.d.d.d.d.d.d.d.d.d.d.d.d.d.d.d.d.d.d.d.d.d.d.d.d.d.d.d.d.d.d.d.d.d.d.d.d.d.d.d.d."
};
