/* XPM */
static char *result[] = {
/* columns rows colors chars-per-pixel */
"50 50 132 2 ",
"   c #000000",
".  c #120F06",
"X  c #151403",
"o  c #262600",
"O  c #2F2F00",
"+  c #313100",
"@  c #3E3E00",
"#  c #2B2814",
"$  c #462900",
"%  c #403E00",
"&  c #633C00",
"*  c #424200",
"=  c #4B4B00",
"-  c #5F4400",
";  c #545100",
":  c #644500",
">  c #6E4700",
",  c #714800",
"<  c #794900",
"1  c #6F7100",
"2  c #717100",
"3  c #797900",
"4  c #464225",
"5  c #484423",
"6  c #4F4929",
"7  c #504A2A",
"8  c #5F5B22",
"9  c #656129",
"0  c #6D6734",
"q  c #6F6936",
"w  c #716B39",
"e  c #797243",
"r  c #945B00",
"t  c #9A5F00",
"y  c #9D6200",
"u  c #9A7017",
"i  c #A66700",
"p  c #A66E04",
"a  c #AB6A00",
"s  c #A67A1D",
"d  c #9A7828",
"f  c #957930",
"g  c #817946",
"h  c #858600",
"j  c #888700",
"k  c #868800",
"l  c #8A8A00",
"z  c #948C00",
"x  c #998E00",
"c  c #909000",
"v  c #B68A00",
"b  c #AD9100",
"n  c #B29100",
"m  c #BB9300",
"M  c #B3AD2E",
"N  c #C49500",
"B  c #CD9700",
"V  c #D49700",
"C  c #D89700",
"Z  c #D49900",
"A  c #DA9A00",
"S  c #EB9C00",
"D  c #F29E00",
"F  c #FF9F00",
"G  c #CDA717",
"H  c #D5AB1A",
"J  c #D8AB1C",
"K  c #EFA000",
"L  c #F4A100",
"P  c #FFA200",
"I  c #FFA900",
"U  c #FFAE0D",
"Y  c #EAAB14",
"T  c #EAB425",
"R  c #F1B727",
"E  c #F3BA2C",
"W  c #FFBE2E",
"Q  c #EDBA30",
"!  c #FFBE30",
"~  c #FFC134",
"^  c #F1C23E",
"/  c #FFC43C",
"(  c #8D854E",
")  c #948C52",
"_  c #988F54",
"`  c #9A9156",
"'  c #A69C5C",
"]  c #B7AE52",
"[  c #B0A663",
"{  c #C5BE47",
"}  c #C8BE47",
"|  c #C4BE49",
" . c #D3B452",
".. c #CAC24C",
"X. c #D3C248",
"o. c #CDC652",
"O. c #CEC55C",
"+. c #D2CA54",
"@. c #D5CC5C",
"#. c #D8CF5E",
"$. c #DAD15E",
"%. c #E7C547",
"&. c #ECC647",
"*. c #F5C645",
"=. c #FFC640",
"-. c #F5C847",
";. c #FECA47",
":. c #FFCD4B",
">. c #FFCE51",
",. c #FFD256",
"<. c #FFD55C",
"1. c #FFD85A",
"2. c #D8CF61",
"3. c #DDD264",
"4. c #E5D96F",
"5. c #FFD964",
"6. c #EADE76",
"7. c #EEE177",
"8. c #EDE179",
"9. c #FFE276",
"0. c #F1E47E",
"q. c #FFE47A",
"w. c #F2E581",
"e. c #F6E982",
"r. c #FFE982",
"t. c #F4E78B",
"y. c #FBED8F",
"u. c #FFF18F",
"i. c #FFF393",
"p. c #FFF896",
"a. c #FFF598",
"s. c #FFFA98",
/* pixels */
"    < I F P P F P N k j j o                                               i I F P P F W i.i.i.e     ",
"    < I P P P P I N k j j o                                               i P P F P F ! a.i.a.e     ",
"    : A Z Z Z Z Z n j l l o     X + + + + + + + + + + + + + + + + X       s ~ ~ Y V V H #.+.#.9     ",
"    @ k k k k h k k l l l o     = c l l l z l l l l l c l c l l c =       ' s.a.| h k k h h k @     ",
"    * l j j j l l j l l l o     = l l j j l j l l l j k j l l l l =       ' a.i.{ h l j j l l *     ",
"    % l j l l l l j j j l o     = l l l l l l l j l l l l l l l l =       ' i.i.{ j l l l l l %     ",
"    > D S S S D S m k k l 3 2 1 v S S S D S S S K S Q 8.7.7.7.7.8.] 2 2 2 O.i.a.-.S S T 0.7.0.q     ",
"    < I P P P P I N k l l l l l B I P P P P P P P P / i.i.i.i.i.i.o.j j j #.i.i.;.P F W i.i.i.e     ",
"    < I I P P P P N k j j k k k N P P P P P P I P P / i.i.i.i.i.i.| h h h 2.i.i.;.P P ~ a.i.s.e     ",
"    : A Z Z Z Z A b j j j b n n A P P S Z Z Z Z Z V T 5.<.<.r.i.i.3.M M M 4.a.i.&.V V H #.@.$.9     ",
"    @ j k k k j k k l l j A P P P P P V k k k k j k m F F F >.i.i.i.i.i.i.i.y.i.{ h k k h h l @     ",
"    % l l l l j l l l j j A P P P P I Z j j j l j k m P P F ,.i.i.y.i.u.y.i.i.i.{ h j j j k l %     ",
"    @ l l l j l j l j l l A P P F P P V k l l k j k m F P F ,.i.y.y.i.i.i.u.i.i.{ j j l j j c %     ",
"    > K S S S S K m l j l A P P P P P V k l k N S S E q.q.q./ U U >.i.i.u.u.u.i.-.S S T 8.6.7.q     ",
"    < P P P P P P N h j j A I P P P P Z k l j B P P / i.i.i.~ F F =.i.u.i.u.i.i.;.P F ! i.i.i.e     ",
"    < I P P P P I N k j l A P P P P P B l j j B P F / i.i.i.~ F F =.i.i.u.i.i.i.;.F F W a.i.s.e     ",
"    : A A Z A A A b k l j A P P P P P V l l k B I F / i.i.i.! F F =.i.i.i.i.u.i.&.C C J 2.#.3.9     ",
"    % k k k k j k l l l j A P P P P P V k j k B P F / i.u.i./ F F =.i.y.i.y.i.i.| h h h k k j @     ",
"    % c j l j j j l l j j A P P P P P Z l l h B P F / i.i.i.! F F =.i.i.i.y.i.i.| j j j l l l @     ",
"    % l l j j j j l l l j A P P P P P B j j j B P P / i.u.i.~ F F =.i.i.u.i.i.i.} j l j l l l @     ",
"    > K S S S S K m h j j A I P P P F D S S S *.9.9.r.i.u.i.! F F =.i.y.u.i.i.i.-.S S T 6.6.8.0     ",
"    < I F P L P I N k j l A P P P P P P P P P >.i.i.i.y.i.i.! F F =.i.i.i.i.y.i.;.F F ! i.u.a.e     ",
"    < I P P P P I N k j j A P P F P P P P P F >.i.i.i.i.i.a./ F F =.i.y.y.i.i.i.;.F F ! i.u.i.e     ",
"    < P P P P P P N k l j A P I P P F P P F P ,.a.i.i.i.i.a.! F F =.i.i.u.i.i.i.;.P P ! a.i.a.e     ",
"    - B B B B B B b k k j m B N S P F P P P F W >.>.>.>.>.>.;./ / 5.i.u.u.u.i.i.%.N B G o.o.o.8     ",
"    @ l k k k k k l l l l k h h N P P P F P P F F F F F F F <.a.i.i.i.u.u.i.i.i...h k k h h k @     ",
"    @ l l l k k l j l j k j l h N P P P P P P P F P P P F F <.u.i.i.i.i.i.u.i.i.{ h j j k j l @     ",
"    % z l z l l l l l l l h h h N P L F L F L P F P P P F F <.i.i.y.t.t.t.y.u.i.} j z l c l z *     ",
"    , D L D D D D m j l j +     ; x x z x x z X.r.r.;.F F P ,.i.i.` . X X [ i.a.-.D D R w.w.e.w     ",
"    < I P P P P P N j j l O     = j j j k k h o.i.a.>.P F F ,.i.i.(       ' p.i.;.P F W i.i.i.e     ",
"    < I P P P P I N k l l o     = c l c l c l o.i.a.,.P I P 1.s.s.(       ' i.i.;.F P ! a.i.s.e     ",
"    - Z B Z B B B b l l j o     o ; ; = ; = = ] i.i. .r r r f _ ` 6       ' i.i.%.B B G o.o.+.8     ",
"    @ j k k k k k k l l l o                   ) i.p.)                     ' i.i...h k k k k j @     ",
"    % l j j k j l j j l j o                   ) p.i.)                     ' i.i...h l j j j l @     ",
"    * l l z l l l l c l c o                   ) p.i.)                     ' u.y.{ j l l l l c *     ",
"    , L D D D D D ^ w.0.w.5                   ) i.i.)                     p U U L K D R e.0.e.w     ",
"    < I P P F F P ;.i.i.i.6                   ) p.i.)                     i P P P P P W i.i.i.e     ",
"    < I I I I I I :.s.p.p.7                   ) i.p.)                     a I I I P I ~ p.p.s.e     ",
"    $ y t t t t t d ` ` ` #                   ) p.p.)                     & y y t t y u ` ` ` 5     ",
"                                              ) i.i.)                                               ",
"                                              ) p.i.)                                               ",
"                                              ) i.i.)                                               ",
"                                              ) p.i.)                                               ",
"                                              ) p.i.)                                               ",
"                                              ) i.p.)                                               ",
"                                              ` s.s.`                                               ",
"                                              4 g g 4                                               ",
"                                                                                                    ",
"                                                                                                    ",
"                                                                                                    "
};
