/* XPM */
static char *result[] = {
/* columns rows colors chars-per-pixel */
"50 50 130 2 ",
"   c #000000",
".  c #0D0D00",
"X  c #1B1B00",
"o  c #19170E",
"O  c #1D1B10",
"+  c #2A2A00",
"@  c #323200",
"#  c #3E3F00",
"$  c #2F2C1B",
"%  c #482D00",
"&  c #633E00",
"*  c #3E4000",
"=  c #414000",
"-  c #4C4C00",
";  c #515100",
":  c #585200",
">  c #634700",
",  c #6E4900",
"<  c #714A00",
"1  c #794B00",
"2  c #6F7100",
"3  c #717100",
"4  c #797900",
"5  c #4A4627",
"6  c #484429",
"7  c #4F4A2D",
"8  c #5F5B26",
"9  c #605C27",
"0  c #65612D",
"q  c #6D6737",
"w  c #6F6939",
"e  c #716B3C",
"r  c #797245",
"t  c #935C00",
"y  c #995F00",
"u  c #9A6000",
"i  c #99701D",
"p  c #A56700",
"a  c #AA6A00",
"s  c #A56E0C",
"d  c #99782C",
"f  c #947933",
"g  c #A57A22",
"h  c #807948",
"j  c #858600",
"k  c #8A8700",
"l  c #868800",
"z  c #898900",
"x  c #948B01",
"c  c #A58E00",
"v  c #B48900",
"b  c #AE9000",
"n  c #B39100",
"m  c #BA9200",
"M  c #B1AC31",
"N  c #C49400",
"B  c #CC9600",
"V  c #CF9800",
"C  c #D39700",
"Z  c #D59800",
"A  c #DA9900",
"S  c #E79B00",
"D  c #EB9C00",
"F  c #F19D00",
"G  c #FF9E00",
"H  c #CCA61D",
"J  c #F6A000",
"K  c #FFA100",
"L  c #FFA800",
"P  c #F8A409",
"I  c #E9AA1B",
"U  c #FFAD15",
"Y  c #D6AA21",
"T  c #E7B128",
"R  c #EAB229",
"E  c #ECB833",
"W  c #F3B932",
"Q  c #FFBD33",
"!  c #FFBF38",
"~  c #FFC235",
"^  c #FFC23D",
"/  c #8A824E",
"(  c #8E8650",
")  c #938B53",
"_  c #988F56",
"`  c #9A9258",
"'  c #A59B5D",
"]  c #B4AD41",
"[  c #B5AC53",
"{  c #A59D60",
"}  c #AFA563",
"|  c #C6BC46",
" . c #C4BD49",
".. c #D2B253",
"X. c #CAC14F",
"o. c #CDC453",
"O. c #CDC35D",
"+. c #D1C855",
"@. c #D5CB5D",
"#. c #E6C449",
"$. c #EBC549",
"%. c #F3C242",
"&. c #FFC542",
"*. c #F5C649",
"=. c #F8C749",
"-. c #FFC949",
";. c #FFCD52",
":. c #FFD055",
">. c #FFD35A",
",. c #D7CE61",
"<. c #DCD164",
"1. c #E4D86F",
"2. c #FFD864",
"3. c #E9DD76",
"4. c #ECDF78",
"5. c #EDE077",
"6. c #EDE17A",
"7. c #FFE176",
"8. c #F0E37E",
"9. c #FFE37A",
"0. c #F2E580",
"q. c #F6E882",
"w. c #FFE982",
"e. c #F4E68A",
"r. c #FDEE8E",
"t. c #FFF38E",
"y. c #FFF292",
"u. c #FFF996",
"i. c #FFF498",
"p. c #FFFC98",
/* pixels */
"                                                                                                    ",
"                                                                                                    ",
"                                                                                                    ",
"                                              6 h h 6                                               ",
"                                              _ p.p._                                               ",
"                                              ) u.y.)                                               ",
"                                              ) y.y.)                                               ",
"                                              ) y.u.)                                               ",
"                                              ) u.y.)                                               ",
"                                              ) t.u.)                                               ",
"                                              ) u.u.)                                               ",
"    6 ` _ ` i u u u u u &                     ) t.y.)                   $ ` ` ` d y u u u u u %     ",
"    r p.u.u.Q K L L L L a                     ) y.u.)                   7 u.u.u.-.L L K L L L 1     ",
"    r u.t.y.Q G G G K K p                     ) u.y.)                   7 y.y.i.-.K K G K K K 1     ",
"    e q.6.0.E F F P U U s                     ) y.y.)                   5 8.0.0.%.F F F F F J <     ",
"    = x z x z z k | r.t.'                     ) y.u.)                   + z x z z z z z x z z =     ",
"    = z j k l z j  .y.y.'                     ) u.y.)                   + z z j z z l z l l z =     ",
"    # k j j j l j  .y.u.'                     ) y.u.)                   + l l z l j j j j l z *     ",
"    9 +.o.o.H B B #.y.y.'       7 _ _ f t t t ..y.u.[ - ; ; - ; ; +     + l z l b B B B B B C >     ",
"    r u.y.i.Q G G -.y.u.'       ( p.p.>.L K L :.y.y.o.z z x z z x -     + z l l N K K K K K K 1     ",
"    r u.y.y.Q G G -.y.y.'       / u.y.:.G G G ;.y.i.o.j l z l l z -     + z z l N K G K K G L 1     ",
"    e q.0.e.R F F =.y.u.} o O o _ y.y.>.G K G -.w.w.| x x x x x x : . . @ z j l m F F F F F J <     ",
"    = x z x z z k  .y.y.r.e.e.e.r.r.y.>.G K K K P K K G G G K J K N 4 j j k j z z z x z z z x =     ",
"    * z z k z k k  .y.r.y.r.y.r.t.t.y.>.G K G K K K K K J K K K K B l k l z z l z z j z z z z =     ",
"    # l j j j j j ] u.y.r.y.r.y.y.i.i.>.G G G G G G G G K K G K K N j j l l z k j j j j j j l *     ",
"    8 +.o.o.H N B #.u.y.y.r.y.y.2.^ ^ &.;.;.;.;.;.;.Q G G K K K G S B B m l l z c B B B B B V >     ",
"    r u.y.y.Q G G -.y.r.r.y.r.y.^ G G ! i.y.y.y.i.i.;.G G K G K K K K K A z j j N L K K K K K 1     ",
"    r i.y.y.Q G G -.y.y.y.r.y.y.&.G G ! y.r.r.y.y.y.;.G K K G K G K K K A l z l N K K K K K L 1     ",
"    r u.y.y.Q G K -.y.t.r.y.r.y.&.G G ! y.r.y.y.y.y.;.G K G K K K K G K A j l j N K K K K K K 1     ",
"    q 5.3.3.T S S $.y.y.y.y.r.y.&.G G ! y.r.y.9.7.7.*.S S S F G K G K K A z z l m S S S S S D ,     ",
"    = z z z k k j  .y.r.r.y.y.y.&.G G ! y.y.y.^ G K B z z l Z K K K G K A z l z l k z z z z z =     ",
"    = z l k k j i  .y.y.y.r.r.y.&.G G ! y.y.y.^ G K B l l l C K G K K K A z k z l z l k z z z =     ",
"    % l j j j j j  .y.r.y.y.r.y.&.G G ! r.y.y.^ G G B l l l C K K K G K A z j z j j j j j j l *     ",
"    0 <.,.,.Y Z Z $.y.y.y.r.r.y.&.G G ! y.r.y.^ G G B l z l C K K K K K A l z l b A Z Z A A A >     ",
"    r p.y.i.Q G G -.y.y.y.r.y.y.&.G G ! y.r.y.^ G K B k l l V K K K K K A l l j N K K K K K L 1     ",
"    r u.y.y.Q G G -.y.y.r.y.r.y.&.G G ! y.y.i.! G K B l l l C K G G K K A k z l N K K K K K K 1     ",
"    w 6.5.5.R S S *.y.y.y.y.r.y.;.U U &.9.7.9.W S D N j l j C K K K G K A l k l m D D D D S F ,     ",
"    * x l l z z k  .y.r.y.r.r.y.r.r.y.:.K K K m z k z z z l C K K G K K A z z z z z z z z z z =     ",
"    = z l l l l j  .y.y.y.y.y.r.y.r.y.>.G K K m j z l z l l C K K K K K A l z j k l l l z z z =     ",
"    * z l l l j u  .y.r.y.i.y.y.y.y.y.:.G G G v j j j j j j B K K G K K A k l z l j l j l l z =     ",
"    9 <.,.,.Y Z V #.y.y.1.M M M ,.y.y.9.>.2.2.T Z Z Z Z Z Z D K K A b n c k z l b Z Z Z Z Z A >     ",
"    r i.y.y.Q G L ;.y.y.@.j j j X.y.y.y.y.y.i.^ G K K K K K K K K N j l l z l j N K K K K K L 1     ",
"    r u.y.y.Q G J -.y.y.@.j j k X.y.u.u.y.y.y.&.G G K K K K K K K B l z l z z j N K K K K K K 1     ",
"    w 6.4.4.R D D *.y.u.O.3 3 2 ] 6.5.8.3.6.4.E D D D D D D D D D v 2 3 4 l z l m D D D D D D ,     ",
"    = z z z z z k  .y.y.'       ; z z z z z z z k k z z z z z z z -     + z l j k z z z z z z =     ",
"    = z l z z z j  .y.u.'       - z l l z l l l z z l k l z z z z -     + k z z z l z l z z z =     ",
"    = z j j j j j  .i.u.{       ; x z z z x z x x z z z z x z z x -     + z l l l j l j l l z =     ",
"    0 ,.O.@.Y C C I ~ ~ g       X @ @ @ @ @ @ @ @ @ @ @ @ @ @ @ @ X     + j z l b Z C C C C A >     ",
"    r u.y.y.Q G K G G G p                                               + l z l N K K K K K L 1     ",
"    r u.t.y.Q G G G K L p                                               + z l l N K K K K K K 1     "
};
