/* XPM */
static char *result[] = {
/* columns rows colors chars-per-pixel */
"50 50 82 1 ",
"  c #000000",
". c #070808",
"X c #0B0C0C",
"o c #001619",
"O c #001A1D",
"+ c gray8",
"@ c #1E1E1E",
"# c #0A1E21",
"$ c #0E282B",
"% c #232323",
"& c #2D2D2D",
"* c #343434",
"= c #3A3A3A",
"- c #003D45",
"; c #004047",
": c #01424A",
"> c #08474E",
", c #0A484F",
"< c #0B4951",
"1 c #134E55",
"2 c #1D5057",
"3 c #1C545B",
"4 c #1E585F",
"5 c #21575D",
"6 c #29585D",
"7 c #265A60",
"8 c #2B5D63",
"9 c #2E646A",
"0 c #336167",
"q c #39656B",
"w c #3C686E",
"e c #3C6B71",
"r c #434343",
"t c #484848",
"y c #535353",
"u c #40696E",
"i c #407177",
"p c #50797E",
"a c #656565",
"s c #6A6A6A",
"d c #548086",
"f c #6C8588",
"g c #718789",
"h c #7B8E90",
"j c #7E9093",
"k c gray53",
"l c #808E8F",
"z c #8E8E8E",
"x c #8B9596",
"c c #899698",
"v c #8E9B9D",
"b c #949D9F",
"n c #9E9E9E",
"m c #9D9FA0",
"M c #9DA4A4",
"N c #97AEB1",
"B c #9DB6B9",
"V c #A4A5A5",
"C c #A3A7A8",
"Z c #A5A9A9",
"A c #ADADAD",
"S c #B1AFAF",
"D c #ADB1B1",
"F c #A0B8BB",
"G c #ABBDBF",
"H c #B2B2B2",
"J c #BBBBBB",
"K c #B2C5C7",
"L c #B5C8CB",
"P c #BDCBCC",
"I c #C3C3C3",
"U c #C6D4D6",
"Y c #CCD7D8",
"T c #D1DDDF",
"R c #D5DFE1",
"E c #DBE2E3",
"W c #E6E6E6",
"Q c #E6EAEB",
"! c #EBEDED",
"~ c #F3F3F3",
"^ c #F4F7F8",
"/ c #FDFDFD",
/* pixels */
"                                                  ",
"                                                  ",
"                                                  ",
"                                                  ",
"                                                  ",
"     X+X ..XXX. .XXX...XXX. ..XX. ..XX.           ",
"    &Q~Y<-3E~E3-<Y~!8-:P~~e-;G^~p--N^^a           ",
"    &~/E1:4!/!4-<E/^9->Y//i::L//d-:F//s           ",
"    &~/E<:4!/!4:<E/^9;>U//i-:L//d-:F//s           ",
"    &!/E1:4Q/Q4:1R/~9:>U/^i;:K//d-;B//s           ",
"    %AHn<:1CHC1:<MHA3:>vHS8-:jHHw-:fHHt           ",
"    @VAb<:1MSM1:>mSZ3::cHA8::hSHq;;fHHt           ",
"    @VAb1>3MSM3>1mDC7><cAA0><hSAu>>fSAt           ",
"    @ZAACCZAAAZVMDAAZCZAAAZZCAAAZVCAAHt           ",
"    @ZSAAAAAAAAAAAAAAAAAAAAAAAAASAAAAHt           ",
"    @nVVVVVAHHHHHHHDHHHHHHHHHAAAZnVVVVr           ",
"     XXXXX%W//^/^/^//^//^//^/IAAr XXXX.           ",
"          @W/////////////////IAS=                 ",
"          @Q/////////////////IAA=                 ",
"        XX&!///^//^//^/^/^///IAAr.X               ",
"       %W~~//^JSHHHHHHHHHH!//IASZVV=              ",
"       %!/////JAAAAAAAAAAA!//IAAAASr              ",
"     +X*~///^~HAAZCCCCCAASW/^IAAAAAt.X.           ",
"    &W!~//~JHHSSC5>,,,<cSAHHHAAAAAAVVVr           ",
"    &~////^HSSAAC1:::::cSAAAAAAAAAAAAHt           ",
"  ..=~////^HAAAAC3::<11bHHAAASHHHHHHHHyX+XXXX+X.  ",
" %VmH/////^JAAAAC2:<Y^~^/^IAAW/^/^/^^/~~~!~~~~^k  ",
" %ZAJ/////^HAAAAC1:<T/////IAAW/////////////////z  ",
" %nVH/////^HAAAAC7<3R////^IAAE~~^^~^~~~~~~~~~~^k  ",
"  ..=~////^HAAAAHQ^^///ISHAAAw<1<<1<<1$XXXXXXXXX  ",
"    &~////~HAAAAH~/////IAAAAA0::::::::O           ",
"    &W~~/^~JHDDSH!/^/^^JAAZCM0::::::::O           ",
"    .XX&ZHJ~/~HSADHHHHHAAA0><>-::>:# .            ",
"       +VAJ^/^HSADAAAAAAAA8-::::::-#              ",
"       +nVS~/~SVCCCCCCCCCC7-:::::--#              ",
"         .@nHZ3>,<,<,,,,<<::::::#                 ",
"          +nAM1:::::::::-:::::::o                 ",
"          +nSM1::::::::::::-::::o                 ",
"     X+XX.@nAC3>,,,,<,,<<<<<<<<<#...X.            ",
"    &W~WZVVAAAVVCCCCCCCCCCCCCCCCCVVVVZt           ",
"    &~/~SAAAAAAAAAAAAAAAAAAAAAAAAAAAAAt           ",
"    &!/!AVZAAAZCZAAAZCCAAAZCCAAAVCCAAHt           ",
"    %AHM1>3MAV3>1bAA6><cAA0>>jSSw>>gSHt           ",
"    @VSb<:1MAM1:<bAZ3:>cAA8::hSAq;:fHAt           ",
"    @ZSb>:1MAM1:,bAZ3::cSA8-:hSAq;:fSSt           ",
"    @ZSb,:1MSM1:<bSZ3:>cSA8::hSAq;:fSHt           ",
"    @ZSb<:1VAV1:<bAA5::cAA8-:hSAq-:fSAt           ",
"    @VAb,:1MAM1:,bAZ3:>cAA8::hSSq:-fSHt           ",
"    @nVx>-1bVx1-,xVn2-;lVV6--gVV0--pAVr           ",
"     X.X.  XXX   .XX.  XXX   XXX. ..XX            "
};
